<svg width="21" height="24" viewBox="0 0 21 24" fill="none" xmlns="http://www.w3.org/2000/svg">
<path d="M19.7808 18.4979C19.433 19.3015 19.0213 20.0412 18.5442 20.7212C17.894 21.6483 17.3616 22.29 16.9513 22.6463C16.3153 23.2313 15.6338 23.5308 14.9041 23.5478C14.3802 23.5478 13.7485 23.3988 13.013 23.0964C12.2752 22.7954 11.5972 22.6463 10.9772 22.6463C10.327 22.6463 9.62959 22.7954 8.88368 23.0964C8.13662 23.3988 7.53481 23.5564 7.07468 23.572C6.37491 23.6018 5.6774 23.2937 4.98118 22.6463C4.53681 22.2588 3.98099 21.5943 3.31515 20.6531C2.60075 19.6479 2.01342 18.4823 1.55329 17.1535C1.06051 15.7182 0.813477 14.3283 0.813477 12.9827C0.813477 11.4413 1.14654 10.1119 1.81366 8.99782C2.33796 8.10298 3.03546 7.3971 3.90844 6.8789C4.78142 6.36071 5.72468 6.09665 6.74048 6.07975C7.2963 6.07975 8.02518 6.25168 8.93095 6.58957C9.83417 6.9286 10.4141 7.10052 10.6684 7.10052C10.8585 7.10052 11.5028 6.89949 12.5949 6.49871C13.6278 6.12703 14.4995 5.97313 15.2136 6.03375C17.1487 6.18992 18.6024 6.95273 19.5693 8.32701C17.8386 9.37561 16.9826 10.8443 16.9996 12.7284C17.0152 14.1959 17.5476 15.4172 18.5939 16.3868C19.0681 16.8369 19.5977 17.1847 20.1868 17.4317C20.0591 17.8023 19.9242 18.1572 19.7808 18.4979ZM15.3428 1.03411C15.3428 2.18437 14.9226 3.25836 14.0849 4.25244C13.0741 5.43421 11.8514 6.11709 10.5256 6.00933C10.5087 5.87134 10.4989 5.7261 10.4989 5.57348C10.4989 4.46923 10.9796 3.28747 11.8333 2.32121C12.2595 1.83198 12.8015 1.42519 13.4588 1.10069C14.1147 0.781027 14.7352 0.604247 15.3187 0.573975C15.3357 0.727747 15.3428 0.881528 15.3428 1.03409V1.03411Z" fill="white"/>
</svg>
