<svg width="25" height="25" viewBox="0 0 25 25" fill="none" xmlns="http://www.w3.org/2000/svg">
<g clip-path="url(#clip0_388_168)">
<rect width="24" height="24" transform="translate(0.5 0.0739746)" fill="black"/>
<path d="M24 12.1439C24 5.79258 18.8513 0.643854 12.5 0.643854C6.14872 0.643854 1 5.79258 1 12.1439C1 17.8838 5.20538 22.6414 10.7031 23.5042V15.4681H7.7832V12.1439H10.7031V9.61026C10.7031 6.72807 12.42 5.13604 15.0468 5.13604C16.305 5.13604 17.6211 5.36065 17.6211 5.36065V8.19073H16.171C14.7424 8.19073 14.2969 9.0772 14.2969 9.98664V12.1439H17.4863L16.9765 15.4681H14.2969V23.5042C19.7946 22.6414 24 17.8838 24 12.1439Z" fill="white"/>
</g>
<defs>
<clipPath id="clip0_388_168">
<rect width="24" height="24" fill="white" transform="translate(0.5 0.0739746)"/>
</clipPath>
</defs>
</svg>
