<svg width="546" height="254" viewBox="0 0 546 254" fill="none" xmlns="http://www.w3.org/2000/svg">
<rect y="0.344727" width="546" height="253" rx="10" fill="url(#paint0_radial_1041_1275)"/>
<rect x="83.1" y="128.945" width="68.8" height="68.8" rx="11.15" fill="white"/>
<rect x="83.1" y="128.945" width="68.8" height="68.8" rx="11.15" stroke="#245E73" stroke-width="0.2"/>
<path d="M117.5 163.345C115.85 163.345 114.438 162.757 113.263 161.582C112.088 160.407 111.5 158.995 111.5 157.345C111.5 155.695 112.088 154.282 113.263 153.107C114.438 151.932 115.85 151.345 117.5 151.345C119.15 151.345 120.562 151.932 121.737 153.107C122.913 154.282 123.5 155.695 123.5 157.345C123.5 158.995 122.913 160.407 121.737 161.582C120.562 162.757 119.15 163.345 117.5 163.345ZM105.5 172.345V171.145C105.5 170.295 105.719 169.514 106.157 168.802C106.595 168.09 107.176 167.546 107.9 167.17C109.45 166.395 111.025 165.814 112.625 165.427C114.225 165.04 115.85 164.846 117.5 164.845C119.15 164.844 120.775 165.038 122.375 165.427C123.975 165.816 125.55 166.397 127.1 167.17C127.825 167.545 128.406 168.089 128.844 168.802C129.282 169.515 129.501 170.296 129.5 171.145V172.345C129.5 173.17 129.207 173.876 128.619 174.464C128.032 175.052 127.326 175.346 126.5 175.345H108.5C107.675 175.345 106.969 175.051 106.382 174.464C105.795 173.877 105.501 173.171 105.5 172.345Z" fill="#245E73"/>
<rect x="232.1" y="127.445" width="76.3" height="71.8" rx="11.15" fill="white"/>
<rect x="232.1" y="127.445" width="76.3" height="71.8" rx="11.15" stroke="#245E73" stroke-width="0.2"/>
<path d="M271.656 159.295V151.87L279.391 159.295M261.812 149.845C260.252 149.845 259 151.046 259 152.545V174.145C259 174.861 259.296 175.548 259.824 176.054C260.351 176.56 261.067 176.845 261.812 176.845H278.688C279.433 176.845 280.149 176.56 280.676 176.054C281.204 175.548 281.5 174.861 281.5 174.145V157.945L273.062 149.845H261.812Z" fill="#245E73"/>
<rect x="388.6" y="128.795" width="73.3" height="69.1" rx="11.15" fill="white"/>
<rect x="388.6" y="128.795" width="73.3" height="69.1" rx="11.15" stroke="#245E73" stroke-width="0.2"/>
<path d="M418.5 167.395H421.2C421.2 168.853 423.049 170.095 425.25 170.095C427.451 170.095 429.3 168.853 429.3 167.395C429.3 165.91 427.896 165.37 424.926 164.654C422.064 163.939 418.5 163.048 418.5 159.295C418.5 156.878 420.485 154.826 423.225 154.138V151.195H427.275V154.138C430.016 154.826 432 156.878 432 159.295H429.3C429.3 157.837 427.451 156.595 425.25 156.595C423.049 156.595 421.2 157.837 421.2 159.295C421.2 160.78 422.604 161.32 425.574 162.035C428.436 162.751 432 163.642 432 167.395C432 169.811 430.016 171.863 427.275 172.552V175.495H423.225V172.552C420.485 171.863 418.5 169.811 418.5 167.395Z" fill="#245E73"/>
<path d="M425 128.357C432.333 105.19 411.6 64.4566 270 86.8566" stroke="#3FA7CC" stroke-width="1.5" stroke-dasharray="5 5"/>
<path d="M115.278 129.357C107.944 106.19 128.678 65.4566 270.278 87.8566" stroke="#3FA7CC" stroke-width="1.5" stroke-dasharray="5 5"/>
<path d="M270 126.345V0.344727" stroke="#3FA7CC" stroke-width="1.5" stroke-dasharray="5 5"/>
<defs>
<radialGradient id="paint0_radial_1041_1275" cx="0" cy="0" r="1" gradientTransform="matrix(126 113.056 -243.986 406.203 273 97.5114)" gradientUnits="userSpaceOnUse">
<stop stop-color="#F7F7F7"/>
<stop offset="1" stop-color="#EDFAFF"/>
</radialGradient>
</defs>
</svg>
